/* XPM */
static char * bitcoin16_xpm[] = {
"16 16 149 2",
"  	c None",
". 	c #3F3F3E",
"+ 	c #646968",
"@ 	c #8AA898",
"# 	c #C6DED2",
"$ 	c #6BB98C",
"% 	c #8DC2A0",
"& 	c #AABBB2",
"* 	c #8E8E8D",
"= 	c #454545",
"- 	c #A8B2AD",
"; 	c #AAD6C0",
"> 	c #33A15E",
", 	c #008130",
"' 	c #008836",
") 	c #008D3B",
"! 	c #008430",
"~ 	c #67B388",
"{ 	c #D1D8D4",
"] 	c #585858",
"^ 	c #B4BBB8",
"/ 	c #73B790",
"( 	c #008632",
"_ 	c #018D3C",
": 	c #008738",
"< 	c #FFFFFF",
"[ 	c #00832F",
"} 	c #018C3A",
"| 	c #018E3C",
"1 	c #3B9C61",
"2 	c #B4CBC0",
"3 	c #6B6B6C",
"4 	c #ADD7C8",
"5 	c #108D44",
"6 	c #018B3B",
"7 	c #018C3B",
"8 	c #00842C",
"9 	c #C5DED1",
"0 	c #008736",
"a 	c #008B37",
"b 	c #008B3B",
"c 	c #008B3A",
"d 	c #68B086",
"e 	c #BABEBC",
"f 	c #217646",
"g 	c #AFDCC0",
"h 	c #008A37",
"i 	c #028A38",
"j 	c #0D9245",
"k 	c #048A3A",
"l 	c #C9E3D7",
"m 	c #2D9256",
"n 	c #A1D1B6",
"o 	c #2D9A59",
"p 	c #008233",
"q 	c #D7E3E0",
"r 	c #696A69",
"s 	c #61AD85",
"t 	c #098D3F",
"u 	c #008A38",
"v 	c #84C8A4",
"w 	c #9BCBB1",
"x 	c #5AB484",
"y 	c #C9E4D6",
"z 	c #007C22",
"A 	c #028B3A",
"B 	c #008532",
"C 	c #9CCDB2",
"D 	c #939493",
"E 	c #69BC8D",
"F 	c #018B3D",
"G 	c #A4CBB9",
"H 	c #A5D4BD",
"I 	c #A5D0B8",
"J 	c #008A39",
"K 	c #028B3B",
"L 	c #008A36",
"M 	c #6AB08A",
"N 	c #AEAFAE",
"O 	c #3D9D67",
"P 	c #018A3D",
"Q 	c #6DB58C",
"R 	c #58A875",
"S 	c #BDE7D2",
"T 	c #5CB27E",
"U 	c #C2E1CF",
"V 	c #00802D",
"W 	c #028C3C",
"X 	c #55A375",
"Y 	c #AFB0AF",
"Z 	c #3E403E",
"` 	c #5D9D78",
" .	c #028C3A",
"..	c #84BD9F",
"+.	c #71BA8F",
"@.	c #007E28",
"#.	c #C4E9D7",
"$.	c #008431",
"%.	c #A8D4BF",
"&.	c #F5FAF8",
"*.	c #73B994",
"=.	c #00852E",
"-.	c #87BD9E",
";.	c #858584",
">.	c #00812F",
",.	c #68B28C",
"'.	c #1F944D",
").	c #008B39",
"!.	c #007F34",
"~.	c #CEEEE0",
"{.	c #008734",
"].	c #028B3D",
"^.	c #339C5E",
"/.	c #329A5D",
"(.	c #319C62",
"_.	c #C5DAD0",
":.	c #656564",
"<.	c #9FC2B0",
"[.	c #007D24",
"}.	c #018D3B",
"|.	c #259B56",
"1.	c #BDE2CE",
"2.	c #008934",
"3.	c #018D39",
"4.	c #008133",
"5.	c #86BCA0",
"6.	c #AAABAB",
"7.	c #565655",
"8.	c #BAD2C6",
"9.	c #0E863F",
"0.	c #008E3C",
"a.	c #008735",
"b.	c #1E994F",
"c.	c #008330",
"d.	c #69B189",
"e.	c #D5E2DD",
"f.	c #C2C3C3",
"g.	c #535353",
"h.	c #BBBBBB",
"i.	c #97C5AB",
"j.	c #4CA671",
"k.	c #299758",
"l.	c #41A16A",
"m.	c #B0D0C0",
"n.	c #E9EAEB",
"o.	c #A5A6A5",
"p.	c #434343",
"q.	c #646560",
"r.	c #8A8B8A",
"              . .               ",
"        + @ # $ % & * =         ",
"      - ; > , ' ) ! ~ { ]       ",
"    ^ / ( _ : < [ } | 1 2 ]     ",
"  3 4 5 6 7 8 9 0 a b c d e =   ",
"  f g h i j k l m n o } p q r   ",
"  s t u v w x y z [ c A B C D   ",
". E ' 7 F u G H I J K 7 L M N . ",
". O } 7 P Q R S T U V W ) X Y Z ",
"  `  .u ..+.@.#.$.%.&.*.=.-.D   ",
"  ;.>.,.'.).!.~.{.].^./.(._.:.  ",
"  = <.[.}.7 |.1.2.7 3.4.5.6.=   ",
"    7.8.9.0.a.b._ c.d.e.f.7.    ",
"      g.h.i.j.k.l.m.n.o.g.      ",
"        p.q.r.o.o.r.q.p.        ",
"              . .               "};
