/* XPM */
static char * bitcoin32_xpm[] = {
"32 32 410 2",
"  	c None",
". 	c #3C3D3B",
"+ 	c #484947",
"@ 	c #5B5C5A",
"# 	c #6B6C6B",
"$ 	c #737473",
"% 	c #434442",
"& 	c #636462",
"* 	c #ABACAC",
"= 	c #E0DEDD",
"- 	c #F5F8F8",
"; 	c #F6FBF6",
"> 	c #DFF0E4",
", 	c #BFE5D4",
"' 	c #EBF9F0",
") 	c #F3F0F1",
"! 	c #CFD1D3",
"~ 	c #40413F",
"{ 	c #C0C1C1",
"] 	c #B7D1CA",
"^ 	c #97C9B0",
"/ 	c #58AB7F",
"( 	c #8EC0A6",
"_ 	c #6FBC93",
": 	c #00873C",
"< 	c #00802D",
"[ 	c #007A27",
"} 	c #3CA467",
"| 	c #7BBC96",
"1 	c #AAC9B8",
"2 	c #EEF3F0",
"3 	c #C3C3C3",
"4 	c #777876",
"5 	c #C8DED4",
"6 	c #DEF1ED",
"7 	c #C3DACF",
"8 	c #6EC094",
"9 	c #3DA461",
"0 	c #04873F",
"a 	c #008633",
"b 	c #038C39",
"c 	c #018C3B",
"d 	c #008C3B",
"e 	c #008D3A",
"f 	c #028C38",
"g 	c #02873E",
"h 	c #62B68A",
"i 	c #D9E1D9",
"j 	c #E9EDED",
"k 	c #8B8C8B",
"l 	c #EEFCF6",
"m 	c #C7D4CB",
"n 	c #75BC96",
"o 	c #229D55",
"p 	c #008234",
"q 	c #038A38",
"r 	c #038A37",
"s 	c #0F8942",
"t 	c #209455",
"u 	c #008533",
"v 	c #038C3C",
"w 	c #028B3D",
"x 	c #018C3C",
"y 	c #058A3A",
"z 	c #028C3A",
"A 	c #0F8B46",
"B 	c #93C7A6",
"C 	c #F7F8F8",
"D 	c #8C8D8D",
"E 	c #7A7B79",
"F 	c #E7F3EC",
"G 	c #BED8C7",
"H 	c #55A77A",
"I 	c #008A39",
"J 	c #028A3B",
"K 	c #028C3B",
"L 	c #028B3B",
"M 	c #269456",
"N 	c #FFFFFF",
"O 	c #CAEAD7",
"P 	c #008737",
"Q 	c #018C3A",
"R 	c #008D3B",
"S 	c #008C3C",
"T 	c #00792E",
"U 	c #BDDFCC",
"V 	c #ACCBBB",
"W 	c #F7F7F7",
"X 	c #ADCEBF",
"Y 	c #6FB78F",
"Z 	c #159B4E",
"` 	c #008C3A",
" .	c #008531",
"..	c #A7D8BF",
"+.	c #008739",
"@.	c #018B3C",
"#.	c #038B3A",
"$.	c #008B37",
"%.	c #008334",
"&.	c #A9D7BF",
"*.	c #97C4AE",
"=.	c #C4C5C5",
"-.	c #A9D4C3",
";.	c #B2DACC",
">.	c #409D6C",
",.	c #018F3B",
"'.	c #018B3B",
").	c #028B3A",
"!.	c #008934",
"~.	c #E9EDEA",
"{.	c #7ABE9A",
"].	c #03893C",
"^.	c #018D3A",
"/.	c #02893C",
"(.	c #429762",
"_.	c #9BCEB4",
":.	c #C3C7C5",
"<.	c #B5D9C7",
"[.	c #85BEA3",
"}.	c #B1DDC6",
"|.	c #007F2C",
"1.	c #038B39",
"2.	c #008B34",
"3.	c #E5EBE4",
"4.	c #7DC3A1",
"5.	c #028A39",
"6.	c #008C37",
"7.	c #008C38",
"8.	c #00893C",
"9.	c #018B3D",
"0.	c #018D38",
"a.	c #87C3A3",
"b.	c #97BCAB",
"c.	c #6B937E",
"d.	c #0E8946",
"e.	c #ECF2EA",
"f.	c #58B882",
"g.	c #068C39",
"h.	c #018C38",
"i.	c #028D3A",
"j.	c #018D3C",
"k.	c #E3EAE3",
"l.	c #76BF9C",
"m.	c #017D32",
"n.	c #369860",
"o.	c #81C59F",
"p.	c #8BC1A1",
"q.	c #4DA36E",
"r.	c #018C39",
"s.	c #018A3D",
"t.	c #0F8740",
"u.	c #B5D4C9",
"v.	c #B9BABA",
"w.	c #56A879",
"x.	c #76AD8A",
"y.	c #C7E8D5",
"z.	c #088A3D",
"A.	c #028B38",
"B.	c #038B3C",
"C.	c #04833A",
"D.	c #1C854C",
"E.	c #5AB183",
"F.	c #84C3A4",
"G.	c #8DC0A7",
"H.	c #A2BEB2",
"I.	c #FBFCFF",
"J.	c #FCFFFF",
"K.	c #FBFFFF",
"L.	c #E8FAF0",
"M.	c #CEE9DB",
"N.	c #BBE3CB",
"O.	c #0F8943",
"P.	c #008C3E",
"Q.	c #5AA680",
"R.	c #CED7D0",
"S.	c #5CB386",
"T.	c #67B088",
"U.	c #1F9752",
"V.	c #048A39",
"W.	c #028B3C",
"X.	c #42A871",
"Y.	c #C3E6D3",
"Z.	c #C5E3D3",
"`.	c #7CBA98",
" +	c #73C198",
".+	c #5CB284",
"++	c #FFFEFF",
"@+	c #6EB88E",
"#+	c #008229",
"$+	c #008436",
"%+	c #008834",
"&+	c #00893A",
"*+	c #028F3E",
"=+	c #008938",
"-+	c #96D7B3",
";+	c #91B9A3",
">+	c #B8D7C7",
",+	c #42A36D",
"'+	c #008332",
")+	c #01883B",
"!+	c #048939",
"~+	c #008839",
"{+	c #B1D2BE",
"]+	c #F9FEFD",
"^+	c #FFFFFD",
"/+	c #449567",
"(+	c #038A3C",
"_+	c #018E3D",
":+	c #82B69A",
"<+	c #7FBA95",
"[+	c #8DC9AB",
"}+	c #3DAB69",
"|+	c #02893D",
"1+	c #03883D",
"2+	c #41966D",
"3+	c #FCFCFD",
"4+	c #62B58C",
"5+	c #32975E",
"6+	c #038D3C",
"7+	c #01893B",
"8+	c #018E3B",
"9+	c #5FB287",
"0+	c #6AA984",
"a+	c #71BF92",
"b+	c #2E9E58",
"c+	c #028D3D",
"d+	c #248E4C",
"e+	c #78CD9E",
"f+	c #F5FDFB",
"g+	c #59BA85",
"h+	c #459B69",
"i+	c #3C9764",
"j+	c #008F3C",
"k+	c #018E39",
"l+	c #62B888",
"m+	c #71AE8E",
"n+	c #7FBD9C",
"o+	c #05893E",
"p+	c #018B3A",
"q+	c #008B3D",
"r+	c #03893D",
"s+	c #06883B",
"t+	c #E1EAE9",
"u+	c #C1E4D4",
"v+	c #007425",
"w+	c #53B881",
"x+	c #008833",
"y+	c #BCE0CE",
"z+	c #81C29D",
"A+	c #008033",
"B+	c #028C3D",
"C+	c #008336",
"D+	c #AEC7B7",
"E+	c #BFDCCC",
"F+	c #008535",
"G+	c #04893A",
"H+	c #028937",
"I+	c #108845",
"J+	c #DDEBE4",
"K+	c #CDEBD5",
"L+	c #008233",
"M+	c #007F32",
"N+	c #54B880",
"O+	c #007E30",
"P+	c #E7FCF2",
"Q+	c #FFFBFF",
"R+	c #D7E7DC",
"S+	c #3C9B68",
"T+	c #008837",
"U+	c #038B36",
"V+	c #04893E",
"W+	c #198949",
"X+	c #F3F4F4",
"Y+	c #D8D9DA",
"Z+	c #0D8741",
"`+	c #2A9659",
" @	c #F6F3FA",
".@	c #BDE3D0",
"+@	c #007F31",
"@@	c #028D3B",
"#@	c #008133",
"$@	c #60BF8D",
"%@	c #008B3C",
"&@	c #008939",
"*@	c #23935B",
"=@	c #CADED5",
"-@	c #45A873",
";@	c #008330",
">@	c #03903E",
",@	c #41A46B",
"'@	c #A9B6B0",
")@	c #97989A",
"!@	c #86BFA0",
"~@	c #008F38",
"{@	c #6FA489",
"]@	c #55B479",
"^@	c #008734",
"/@	c #028C3C",
"(@	c #007A32",
"_@	c #6AC597",
":@	c #048B3C",
"<@	c #018C36",
"[@	c #359562",
"}@	c #A1DCBE",
"|@	c #007B38",
"1@	c #6DB690",
"2@	c #EDEDED",
"3@	c #0C883E",
"4@	c #02873A",
"5@	c #62AA81",
"6@	c #5CB68B",
"7@	c #018D3D",
"8@	c #258B51",
"9@	c #74C59E",
"0@	c #068938",
"a@	c #058D3F",
"b@	c #05863B",
"c@	c #008438",
"d@	c #008034",
"e@	c #00863C",
"f@	c #55A97B",
"g@	c #A3CBB6",
"h@	c #9FA09F",
"i@	c #C2E0D2",
"j@	c #008432",
"k@	c #01883A",
"l@	c #028A38",
"m@	c #028D3C",
"n@	c #048B3A",
"o@	c #7CC695",
"p@	c #FEFAFC",
"q@	c #79C59F",
"r@	c #048A38",
"s@	c #018A3B",
"t@	c #008B3B",
"u@	c #44A26D",
"v@	c #59A27F",
"w@	c #3F403E",
"x@	c #525351",
"y@	c #D2D3D4",
"z@	c #AAD8C2",
"A@	c #007E2C",
"B@	c #018D3B",
"C@	c #47A772",
"D@	c #42AC6D",
"E@	c #018B36",
"F@	c #028D38",
"G@	c #008136",
"H@	c #278C4B",
"I@	c #54A67A",
"J@	c #E5E6E6",
"K@	c #BCDDCD",
"L@	c #0E8944",
"M@	c #038A39",
"N@	c #008D3C",
"O@	c #007E2D",
"P@	c #A7DBBB",
"Q@	c #008431",
"R@	c #278D52",
"S@	c #96BFAA",
"T@	c #ADD2BE",
"U@	c #DEDEDF",
"V@	c #E3E4E4",
"W@	c #F7FDFA",
"X@	c #509E77",
"Y@	c #00812F",
"Z@	c #008F3D",
"`@	c #008D3D",
" #	c #008C39",
".#	c #018B39",
"+#	c #03833B",
"@#	c #6EBA8E",
"##	c #C1D4CC",
"$#	c #E6F1ED",
"%#	c #DFDFE1",
"&#	c #CBCCCD",
"*#	c #F9F9FA",
"=#	c #CDE5DA",
"-#	c #58AA7D",
";#	c #007A2D",
">#	c #008B36",
",#	c #048B3B",
"'#	c #068A3D",
")#	c #01873B",
"!#	c #01893A",
"~#	c #08863A",
"{#	c #5CAE81",
"]#	c #98C1A9",
"^#	c #D7E6E0",
"/#	c #F6F7F6",
"(#	c #9A9B9B",
"_#	c #DADBDC",
":#	c #F5F5F5",
"<#	c #F6FBFB",
"[#	c #A7C9B8",
"}#	c #71B38E",
"|#	c #52AA78",
"1#	c #429F69",
"2#	c #4FA775",
"3#	c #A8D1BC",
"4#	c #BBD7C9",
"5#	c #F0F6F5",
"6#	c #575856",
"7#	c #8B8B8B",
"8#	c #BDBEC1",
"9#	c #D7D8D8",
"0#	c #EBECEC",
"a#	c #EFEFF0",
"b#	c #E7E8E9",
"c#	c #BFC0C2",
"                                                                ",
"                        . . . . . . . .                         ",
"                  . . . + @ # $ $ # @ + . . .                   ",
"              . . % & * = - ; > , ' ) ! * & ~ . .               ",
"            . . @ { ] ^ / ( _ : < [ } | 1 2 3 @ . .             ",
"          . ~ 4 5 6 7 8 9 0 a b c d e f g h i j $ ~ .           ",
"        . ~ k l m n o p q r s t u v w x y z A B C D ~ .         ",
"      . . E F G H I J K c L M N O P x Q c R S T U V E . .       ",
"      . @ W X Y Z ` c c c e  .N ..+.@.Q c Q #.$.%.&.*.@ .       ",
"    . % =.-.;.>.,.'.c c c ).!.~.{.].x Q c c c ^./.(._.:.% .     ",
"    . & <.[.}.|.^.@.@.).1.).2.3.4.5.J 6.7.` 8.^.9.0.a.b.& .     ",
"    . c.d.e.f.g.c #.h.i.j.d !.k.l.m.n.o.p.q.d r.@.s.t.u.v..     ",
"  . + w.x.y.z.A.B.C.D.E.F.G.H.I.J.N K.L.M.N.O.1.S P.7.Q.R.+ .   ",
"  . @ S.T.U.V.R W.X.Y.Z.`. +.+++@+#+u $+%+&+*+#.c L =+-+;+@ .   ",
"  . # >+,+'+h.` x )+P P !+~+{+]+^+/+).(+d e ).c c Q _+:+<+# .   ",
"  . $ [+}+=+c c c S |+1+e 2+N 3+4+N 5+6+7+J c c c L 8+9+0+$ .   ",
"  . $ a+b+c+d c c L j.].d+N e+f+g+h+N i+j+).r.^.c c k+l+m+$ .   ",
"  . # n+o+p+c c c q+r+s+t+u+v+N w+x+y+N z+A+K B+c c d C+D+# .   ",
"  . @ E+F+G+c R W.H+I+J+K+L+M+N N+` O+P+Q+R+S+T+U+L V+W+X+@ .   ",
"  . % Y+Z+1.c J d `+ @.@+@@@#@N $@%@&@*@N J.N =@-@;@>@,@'@+ .   ",
"    . )@!@~@'.x+{@N ]@^@f /@(@N _@:@/.<@[@N N N N }@|@1@)@.     ",
"    . @ 2@3@4@5@6@C+q 7@c 5.8@N 9@0@c S a@$+b@c@d@e@f@g@@ .     ",
"    . ~ h@i@j@k@0.l@m@c c n@o@p@q@r@c c s@t@w r.S u@v@h@~ w@    ",
"      . x@y@z@A@5.c R B@c ` C@N D@E@m@c c z F@G@H@I@y@x@.       ",
"      . . # J@K@L@i.M@'.L N@O@P@Q@Q /@#.d /.R@S@T@U@# . w@      ",
"        . ~ $ V@W@X@Y@Z@`@w j. #'..#N@` +#@###$#%#4 w@.         ",
"          . . # &#*#=#-#;#>#,#'#)#!#~#{#]#^#/#&## ~ .           ",
"            . . x@(#_#:#<#[#}#|#1#2#3#4#5#_#(#x@. .             ",
"                w@w@6#7#8#9#0#0#a#b#_#c#7#6#w@.                 ",
"                  . . . % x@& & & & x@% . . .                   ",
"                        . . . . . . . .                         ",
"                                                                "};
